<svg width="64" height="74" viewBox="0 0 64 74" fill="none" xmlns="http://www.w3.org/2000/svg">
<mask id="mask0_9665_7624" style="mask-type:alpha" maskUnits="userSpaceOnUse" x="0" y="0" width="64" height="74">
<rect width="64" height="74" fill="url(#paint0_linear_9665_7624)"/>
</mask>
<g mask="url(#mask0_9665_7624)">
<g clip-path="url(#clip0_9665_7624)">
<path d="M64.0896 151.845C63.5936 151.845 63.1179 151.648 62.7672 151.297C62.4165 150.946 62.2195 150.471 62.2195 149.975C62.2195 149.479 62.4165 149.003 62.7672 148.652C63.1179 148.302 63.5936 148.105 64.0896 148.105V142.787C63.5936 142.787 63.1179 142.59 62.7672 142.239C62.4165 141.889 62.2195 141.413 62.2195 140.917C62.2195 140.421 62.4165 139.945 62.7672 139.595C63.1179 139.244 63.5936 139.047 64.0896 139.047V133.73C63.5936 133.73 63.1179 133.533 62.7672 133.182C62.4165 132.831 62.2195 132.356 62.2195 131.86C62.2195 131.364 62.4165 130.888 62.7672 130.537C63.1179 130.187 63.5936 129.99 64.0896 129.99V124.685C63.5936 124.685 63.1179 124.488 62.7672 124.137C62.4165 123.786 62.2195 123.311 62.2195 122.815C62.2195 122.319 62.4165 121.843 62.7672 121.492C63.1179 121.142 63.5936 120.945 64.0896 120.945V115.627C63.5936 115.627 63.1179 115.43 62.7672 115.08C62.4165 114.729 62.2195 114.253 62.2195 113.757C62.2195 113.261 62.4165 112.786 62.7672 112.435C63.1179 112.084 63.5936 111.887 64.0896 111.887V106.582C63.5936 106.582 63.1179 106.385 62.7672 106.035C62.4165 105.684 62.2195 105.208 62.2195 104.712C62.2195 104.216 62.4165 103.741 62.7672 103.39C63.1179 103.039 63.5936 102.842 64.0896 102.842V97.5249C63.5936 97.5249 63.1179 97.3279 62.7672 96.9772C62.4165 96.6265 62.2195 96.1509 62.2195 95.6549C62.2195 95.159 62.4165 94.6833 62.7672 94.3326C63.1179 93.9819 63.5936 93.7849 64.0896 93.7849V88.4802C63.5936 88.4802 63.1179 88.2831 62.7672 87.9324C62.4165 87.5818 62.2195 87.1061 62.2195 86.6101C62.2195 86.1142 62.4165 85.6385 62.7672 85.2878C63.1179 84.9371 63.5936 84.7401 64.0896 84.7401V79.4226C63.843 79.4242 63.5985 79.377 63.3703 79.2837C63.142 79.1905 62.9344 79.053 62.7595 78.8792C62.5846 78.7054 62.4458 78.4987 62.3511 78.271C62.2563 78.0434 62.2076 77.7992 62.2076 77.5527C62.2076 77.3061 62.2563 77.0619 62.3511 76.8343C62.4458 76.6066 62.5846 76.3999 62.7595 76.2261C62.9344 76.0523 63.142 75.9149 63.3703 75.8216C63.5985 75.7283 63.843 75.6811 64.0896 75.6827V70.3651C63.5936 70.3651 63.1179 70.1681 62.7672 69.8174C62.4165 69.4667 62.2195 68.9911 62.2195 68.4951C62.2195 67.9992 62.4165 67.5235 62.7672 67.1728C63.1179 66.8221 63.5936 66.6251 64.0896 66.6251V61.3203C63.5936 61.3203 63.1179 61.1233 62.7672 60.7726C62.4165 60.4219 62.2195 59.9463 62.2195 59.4503C62.2195 58.9544 62.4165 58.4787 62.7672 58.128C63.1179 57.7773 63.5936 57.5803 64.0896 57.5803V52.2628C63.5936 52.2628 63.1179 52.0658 62.7672 51.7151C62.4165 51.3644 62.2195 50.8888 62.2195 50.3928C62.2195 49.8968 62.4165 49.4212 62.7672 49.0705C63.1179 48.7198 63.5936 48.5228 64.0896 48.5228V43.218C63.5936 43.218 63.1179 43.021 62.7672 42.6703C62.4165 42.3196 62.2195 41.844 62.2195 41.348C62.2195 40.852 62.4165 40.3764 62.7672 40.0257C63.1179 39.675 63.5936 39.478 64.0896 39.478V34.1605C63.5936 34.1605 63.1179 33.9635 62.7672 33.6128C62.4165 33.2621 62.2195 32.7865 62.2195 32.2905C62.2195 31.7945 62.4165 31.3189 62.7672 30.9682C63.1179 30.6175 63.5936 30.4205 64.0896 30.4205V25.103C63.5936 25.103 63.1179 24.906 62.7672 24.5553C62.4165 24.2046 62.2195 23.729 62.2195 23.233C62.2195 22.737 62.4165 22.2614 62.7672 21.9107C63.1179 21.56 63.5936 21.363 64.0896 21.363V8.78168H0V21.3757C0.49596 21.3757 0.971608 21.5727 1.32231 21.9234C1.673 22.2741 1.87002 22.7497 1.87002 23.2457C1.87002 23.7417 1.673 24.2173 1.32231 24.568C0.971608 24.9187 0.49596 25.1157 0 25.1157V30.4332C0.49596 30.4332 0.971608 30.6302 1.32231 30.9809C1.673 31.3316 1.87002 31.8073 1.87002 32.3032C1.87002 32.7992 1.673 33.2748 1.32231 33.6255C0.971608 33.9762 0.49596 34.1732 0 34.1732V39.4907C0.245575 39.4907 0.488746 39.5391 0.715627 39.6331C0.942509 39.727 1.14866 39.8648 1.32231 40.0384C1.49595 40.2121 1.6337 40.4182 1.72768 40.6451C1.82165 40.872 1.87002 41.1152 1.87002 41.3607C1.87002 41.6063 1.82165 41.8495 1.72768 42.0764C1.6337 42.3032 1.49595 42.5094 1.32231 42.683C1.14866 42.8567 0.942509 42.9944 0.715627 43.0884C0.488746 43.1824 0.245575 43.2308 0 43.2308V48.5355C0.49596 48.5355 0.971608 48.7325 1.32231 49.0832C1.673 49.4339 1.87002 49.9096 1.87002 50.4055C1.87002 50.9015 1.673 51.3771 1.32231 51.7278C0.971608 52.0785 0.49596 52.2756 0 52.2756V57.593C0.49596 57.593 0.971608 57.79 1.32231 58.1407C1.673 58.4914 1.87002 58.9671 1.87002 59.463C1.87002 59.959 1.673 60.4346 1.32231 60.7853C0.971608 61.136 0.49596 61.3331 0 61.3331V66.6378C0.245575 66.6378 0.488746 66.6862 0.715627 66.7801C0.942509 66.8741 1.14866 67.0119 1.32231 67.1855C1.49595 67.3592 1.6337 67.5653 1.72768 67.7922C1.82165 68.0191 1.87002 68.2623 1.87002 68.5078C1.87002 68.7534 1.82165 68.9966 1.72768 69.2235C1.6337 69.4503 1.49595 69.6565 1.32231 69.8301C1.14866 70.0038 0.942509 70.1415 0.715627 70.2355C0.488746 70.3295 0.245575 70.3779 0 70.3779V75.6953C0.49596 75.6953 0.971608 75.8923 1.32231 76.243C1.673 76.5937 1.87002 77.0694 1.87002 77.5653C1.87002 78.0613 1.673 78.537 1.32231 78.8877C0.971608 79.2384 0.49596 79.4354 0 79.4354V84.7528C0.49596 84.7528 0.971608 84.9499 1.32231 85.3006C1.673 85.6513 1.87002 86.1269 1.87002 86.6229C1.87002 87.1188 1.673 87.5945 1.32231 87.9452C0.971608 88.2959 0.49596 88.4929 0 88.4929V93.7977C0.49596 93.7977 0.971608 93.9947 1.32231 94.3454C1.673 94.6961 1.87002 95.1718 1.87002 95.6677C1.87002 96.1637 1.673 96.6393 1.32231 96.99C0.971608 97.3407 0.49596 97.5377 0 97.5377V102.855C0.49596 102.855 0.971608 103.052 1.32231 103.403C1.673 103.754 1.87002 104.229 1.87002 104.725C1.87002 105.221 1.673 105.697 1.32231 106.048C0.971608 106.398 0.49596 106.595 0 106.595V111.9C0.49596 111.9 0.971608 112.097 1.32231 112.448C1.673 112.798 1.87002 113.274 1.87002 113.77C1.87002 114.266 1.673 114.742 1.32231 115.092C0.971608 115.443 0.49596 115.64 0 115.64V120.958C0.49596 120.958 0.971608 121.155 1.32231 121.505C1.673 121.856 1.87002 122.332 1.87002 122.828C1.87002 123.324 1.673 123.799 1.32231 124.15C0.971608 124.501 0.49596 124.698 0 124.698V130.002C0.245575 130.002 0.488746 130.051 0.715627 130.145C0.942509 130.239 1.14866 130.376 1.32231 130.55C1.49595 130.724 1.6337 130.93 1.72768 131.157C1.82165 131.384 1.87002 131.627 1.87002 131.872C1.87002 132.118 1.82165 132.361 1.72768 132.588C1.6337 132.815 1.49595 133.021 1.32231 133.195C1.14866 133.368 0.942509 133.506 0.715627 133.6C0.488746 133.694 0.245575 133.742 0 133.742V139.06C0.49596 139.06 0.971608 139.257 1.32231 139.608C1.673 139.958 1.87002 140.434 1.87002 140.93C1.87002 141.426 1.673 141.901 1.32231 142.252C0.971608 142.603 0.49596 142.8 0 142.8V148.117C0.49596 148.117 0.971608 148.314 1.32231 148.665C1.673 149.016 1.87002 149.491 1.87002 149.987C1.87002 150.483 1.673 150.959 1.32231 151.31C0.971608 151.66 0.49596 151.857 0 151.857V164.426H64.0896V151.845ZM1.59015 13.374C1.59015 12.7853 1.76474 12.2098 2.09183 11.7202C2.41892 11.2307 2.88383 10.8492 3.42776 10.6239C3.9717 10.3986 4.57022 10.3396 5.14766 10.4545C5.7251 10.5693 6.25551 10.8528 6.67182 11.2691C7.08813 11.6855 7.37164 12.2159 7.48649 12.7933C7.60135 13.3707 7.5424 13.9693 7.3171 14.5132C7.09179 15.0571 6.71025 15.522 6.22072 15.8491C5.7312 16.1762 5.15567 16.3508 4.56692 16.3508C3.77773 16.3498 3.02116 16.0359 2.46312 15.4778C1.90508 14.9198 1.59114 14.1632 1.59014 13.374L1.59015 13.374ZM56.5204 13.374C56.5204 12.7853 56.695 12.2098 57.0221 11.7202C57.3492 11.2307 57.8141 10.8492 58.358 10.6239C58.902 10.3986 59.5005 10.3396 60.0779 10.4545C60.6554 10.5693 61.1858 10.8528 61.6021 11.2691C62.0184 11.6855 62.3019 12.2159 62.4168 12.7933C62.5316 13.3707 62.4727 13.9693 62.2474 14.5132C62.0221 15.0571 61.6405 15.522 61.151 15.8491C60.6615 16.1762 60.0859 16.3508 59.4972 16.3508C58.708 16.3498 57.9514 16.0359 57.3934 15.4778C56.8353 14.9198 56.5214 14.1632 56.5204 13.374L56.5204 13.374ZM1.59015 159.859C1.59015 159.27 1.76474 158.695 2.09183 158.205C2.41892 157.716 2.88383 157.334 3.42776 157.109C3.9717 156.883 4.57022 156.825 5.14766 156.939C5.7251 157.054 6.25551 157.338 6.67182 157.754C7.08813 158.17 7.37164 158.701 7.48649 159.278C7.60135 159.856 7.5424 160.454 7.3171 160.998C7.09179 161.542 6.71025 162.007 6.22072 162.334C5.7312 162.661 5.15567 162.836 4.56692 162.836C3.77774 162.835 3.02117 162.521 2.46313 161.963C1.9051 161.405 1.59115 160.648 1.59014 159.859H1.59015ZM56.5204 159.859C56.5204 159.27 56.695 158.695 57.0221 158.205C57.3492 157.716 57.8141 157.334 58.358 157.109C58.902 156.883 59.5005 156.825 60.0779 156.939C60.6554 157.054 61.1858 157.338 61.6021 157.754C62.0184 158.17 62.3019 158.701 62.4168 159.278C62.5316 159.856 62.4727 160.454 62.2474 160.998C62.0221 161.542 61.6405 162.007 61.151 162.334C60.6615 162.661 60.0859 162.836 59.4972 162.836C58.708 162.835 57.9514 162.521 57.3934 161.963C56.8354 161.405 56.5214 160.648 56.5204 159.859H56.5204Z" fill="#017481"/>
<path d="M47.2015 0H16.8807V23.2339H47.2015V0Z" fill="#9DA0A1"/>
<path d="M16.8811 20.9112V23.2341H16.9307H47.1182H47.2021V20.9112H47.1182H16.8811Z" fill="#8B8F90"/>
<path d="M16.8811 16.2641V18.587H16.9307H47.1182H47.2021V16.2641H47.1182H16.8811Z" fill="#8B8F90"/>
<path d="M16.8811 11.617V13.9399H16.9307H47.1182H47.2021V11.617H47.1182H16.8811Z" fill="#8B8F90"/>
<path d="M16.8811 6.96997V9.29414H16.9307H47.1182H47.2021V6.96997H47.1182H16.8811Z" fill="#8B8F90"/>
<path d="M16.8811 2.32291V4.64707H16.9307H47.1182H47.2021V2.32291H47.1182H16.8811Z" fill="#8B8F90"/>
<path d="M49.5176 73.2901H47.2017V75.0028H49.5176V73.2901Z" fill="#8A7867"/>
<path d="M49.5176 73.2901H47.2017V75.0028H49.5176V73.2901Z" fill="#8A7867"/>
<path d="M49.5176 73.2901H47.2017V75.0028H49.5176V73.2901Z" fill="#8A7867"/>
<path d="M49.5176 73.2901H47.2017V75.0028H49.5176V73.2901Z" fill="#8A7867"/>
<path d="M64.0896 26.108H59.3955C58.6347 26.108 57.905 25.8057 57.3671 25.2678C56.8291 24.7298 56.5269 24.0002 56.5269 23.2393C56.5269 22.4785 56.8291 21.7489 57.3671 21.2109C57.905 20.6729 58.6347 20.3707 59.3955 20.3707H64.0896V21.363C63.5937 21.363 63.118 21.56 62.7673 21.9107C62.4166 22.2614 62.2196 22.737 62.2196 23.233C62.2196 23.7289 62.4166 24.2046 62.7673 24.5553C63.118 24.906 63.5937 25.103 64.0896 25.103V26.108Z" fill="#C2B9AF"/>
<path d="M59.3719 25.1145C60.4055 25.1145 61.2434 24.2766 61.2434 23.2431C61.2434 22.2095 60.4055 21.3716 59.3719 21.3716C58.3384 21.3716 57.5005 22.2095 57.5005 23.2431C57.5005 24.2766 58.3384 25.1145 59.3719 25.1145Z" fill="#8A7867"/>
<path d="M64.0896 35.1655H59.3955C58.6347 35.1655 57.905 34.8632 57.3671 34.3253C56.8291 33.7873 56.5269 33.0576 56.5269 32.2968C56.5269 31.536 56.8291 30.8064 57.3671 30.2684C57.905 29.7304 58.6347 29.4282 59.3955 29.4282H64.0896V30.4204C63.5937 30.4204 63.118 30.6175 62.7673 30.9682C62.4166 31.3189 62.2196 31.7945 62.2196 32.2905C62.2196 32.7864 62.4166 33.2621 62.7673 33.6128C63.118 33.9635 63.5937 34.1605 64.0896 34.1605V35.1655Z" fill="#C2B9AF"/>
<path d="M59.3719 34.1666C60.4055 34.1666 61.2434 33.3288 61.2434 32.2952C61.2434 31.2616 60.4055 30.4238 59.3719 30.4238C58.3384 30.4238 57.5005 31.2616 57.5005 32.2952C57.5005 33.3288 58.3384 34.1666 59.3719 34.1666Z" fill="#8A7867"/>
<path d="M64.0896 44.223H59.3955C58.6347 44.223 57.905 43.9207 57.3671 43.3828C56.8291 42.8448 56.5269 42.1151 56.5269 41.3543C56.5269 40.5935 56.8291 39.8639 57.3671 39.3259C57.905 38.7879 58.6347 38.4857 59.3955 38.4857H64.0896V39.478C63.5937 39.478 63.118 39.675 62.7673 40.0257C62.4166 40.3764 62.2196 40.852 62.2196 41.348C62.2196 41.844 62.4166 42.3196 62.7673 42.6703C63.118 43.021 63.5937 43.218 64.0896 43.218V44.223Z" fill="#C2B9AF"/>
<path d="M59.3719 43.2188C60.4055 43.2188 61.2434 42.3809 61.2434 41.3473C61.2434 40.3138 60.4055 39.4759 59.3719 39.4759C58.3384 39.4759 57.5005 40.3138 57.5005 41.3473C57.5005 42.3809 58.3384 43.2188 59.3719 43.2188Z" fill="#8A7867"/>
<path d="M64.0896 53.2678H59.3955C58.6347 53.2678 57.905 52.9655 57.3671 52.4276C56.8291 51.8896 56.5269 51.1599 56.5269 50.3991C56.5269 49.6383 56.8291 48.9087 57.3671 48.3707C57.905 47.8327 58.6347 47.5305 59.3955 47.5305H64.0896V48.5227C63.5937 48.5227 63.118 48.7198 62.7673 49.0705C62.4166 49.4212 62.2196 49.8968 62.2196 50.3928C62.2196 50.8887 62.4166 51.3644 62.7673 51.7151C63.118 52.0658 63.5937 52.2628 64.0896 52.2628V53.2678Z" fill="#C2B9AF"/>
<path d="M59.3719 52.2709C60.4055 52.2709 61.2434 51.433 61.2434 50.3994C61.2434 49.3659 60.4055 48.528 59.3719 48.528C58.3384 48.528 57.5005 49.3659 57.5005 50.3994C57.5005 51.433 58.3384 52.2709 59.3719 52.2709Z" fill="#8A7867"/>
<path d="M64.0896 62.3254H59.3955C58.6347 62.3254 57.905 62.0231 57.3671 61.4852C56.8291 60.9472 56.5269 60.2175 56.5269 59.4567C56.5269 58.6959 56.8291 57.9663 57.3671 57.4283C57.905 56.8903 58.6347 56.5881 59.3955 56.5881H64.0896V57.5803C63.5937 57.5803 63.118 57.7774 62.7673 58.1281C62.4166 58.4787 62.2196 58.9544 62.2196 59.4504C62.2196 59.9463 62.4166 60.422 62.7673 60.7727C63.118 61.1234 63.5937 61.3204 64.0896 61.3204V62.3254Z" fill="#C2B9AF"/>
<path d="M59.3719 61.323C60.4055 61.323 61.2434 60.4851 61.2434 59.4516C61.2434 58.418 60.4055 57.5801 59.3719 57.5801C58.3384 57.5801 57.5005 58.418 57.5005 59.4516C57.5005 60.4851 58.3384 61.323 59.3719 61.323Z" fill="#8A7867"/>
<path d="M64.0896 71.3701H59.3955C58.6347 71.3701 57.905 71.0679 57.3671 70.5299C56.8291 69.9919 56.5269 69.2623 56.5269 68.5015C56.5269 67.7407 56.8291 67.011 57.3671 66.4731C57.905 65.9351 58.6347 65.6328 59.3955 65.6328H64.0896V66.6251C63.5937 66.6251 63.118 66.8221 62.7673 67.1728C62.4166 67.5235 62.2196 67.9992 62.2196 68.4951C62.2196 68.9911 62.4166 69.4667 62.7673 69.8174C63.118 70.1681 63.5937 70.3651 64.0896 70.3651V71.3701Z" fill="#C2B9AF"/>
<path d="M59.3719 70.3751C60.4055 70.3751 61.2434 69.5372 61.2434 68.5037C61.2434 67.4701 60.4055 66.6322 59.3719 66.6322C58.3384 66.6322 57.5005 67.4701 57.5005 68.5037C57.5005 69.5372 58.3384 70.3751 59.3719 70.3751Z" fill="#8A7867"/>
<path d="M4.69413 71.3701H0V70.3779C0.49596 70.3779 0.971604 70.1808 1.3223 69.8302C1.673 69.4795 1.87002 69.0038 1.87002 68.5078C1.87002 68.0119 1.673 67.5362 1.3223 67.1855C0.971604 66.8348 0.49596 66.6378 0 66.6378V65.6328H4.69413C5.45494 65.6328 6.18459 65.9351 6.72256 66.4731C7.26054 67.011 7.56277 67.7407 7.56277 68.5015C7.56277 69.2623 7.26054 69.9919 6.72256 70.5299C6.18459 71.0679 5.45494 71.3701 4.69413 71.3701V71.3701Z" fill="#C2B9AF"/>
<path d="M4.70847 70.3802C5.74203 70.3802 6.5799 69.5423 6.5799 68.5088C6.5799 67.4752 5.74203 66.6373 4.70847 66.6373C3.6749 66.6373 2.83704 67.4752 2.83704 68.5088C2.83704 69.5423 3.6749 70.3802 4.70847 70.3802Z" fill="#8A7867"/>
<path d="M4.69413 62.3254H0V61.3331C0.49596 61.3331 0.971604 61.1361 1.3223 60.7854C1.673 60.4347 1.87002 59.959 1.87002 59.4631C1.87002 58.9671 1.673 58.4915 1.3223 58.1408C0.971604 57.7901 0.49596 57.5931 0 57.5931V56.5881H4.69413C5.45494 56.5881 6.18459 56.8903 6.72256 57.4283C7.26054 57.9663 7.56277 58.6959 7.56277 59.4567C7.56277 60.2175 7.26054 60.9472 6.72256 61.4852C6.18459 62.0231 5.45494 62.3254 4.69413 62.3254V62.3254Z" fill="#C2B9AF"/>
<path d="M4.70847 61.3281C5.74203 61.3281 6.5799 60.4902 6.5799 59.4567C6.5799 58.4231 5.74203 57.5852 4.70847 57.5852C3.6749 57.5852 2.83704 58.4231 2.83704 59.4567C2.83704 60.4902 3.6749 61.3281 4.70847 61.3281Z" fill="#8A7867"/>
<path d="M4.69413 53.2678H0V52.2755C0.245575 52.2755 0.488741 52.2271 0.715622 52.1332C0.942504 52.0392 1.14866 51.9014 1.32231 51.7278C1.49595 51.5541 1.63369 51.348 1.72767 51.1211C1.82165 50.8942 1.87002 50.6511 1.87002 50.4055C1.87002 50.1599 1.82165 49.9168 1.72767 49.6899C1.63369 49.463 1.49595 49.2568 1.32231 49.0832C1.14866 48.9095 0.942504 48.7718 0.715622 48.6778C0.488741 48.5838 0.245575 48.5355 0 48.5355V47.5305H4.69413C5.45494 47.5305 6.18459 47.8327 6.72256 48.3707C7.26054 48.9087 7.56277 49.6383 7.56277 50.3991C7.56277 51.1599 7.26054 51.8896 6.72256 52.4276C6.18459 52.9655 5.45494 53.2678 4.69413 53.2678V53.2678Z" fill="#C2B9AF"/>
<path d="M4.70847 52.276C5.74203 52.276 6.5799 51.4381 6.5799 50.4045C6.5799 49.371 5.74203 48.5331 4.70847 48.5331C3.6749 48.5331 2.83704 49.371 2.83704 50.4045C2.83704 51.4381 3.6749 52.276 4.70847 52.276Z" fill="#8A7867"/>
<path d="M4.69413 44.223H0V43.2307C0.49596 43.2307 0.971604 43.0337 1.3223 42.683C1.673 42.3323 1.87002 41.8567 1.87002 41.3607C1.87002 40.8647 1.673 40.3891 1.3223 40.0384C0.971604 39.6877 0.49596 39.4907 0 39.4907V38.4857H4.69413C5.45494 38.4857 6.18459 38.7879 6.72256 39.3259C7.26054 39.8639 7.56277 40.5935 7.56277 41.3543C7.56277 42.1151 7.26054 42.8448 6.72256 43.3828C6.18459 43.9207 5.45494 44.223 4.69413 44.223V44.223Z" fill="#C2B9AF"/>
<path d="M4.70847 43.2239C5.74203 43.2239 6.5799 42.386 6.5799 41.3524C6.5799 40.3189 5.74203 39.481 4.70847 39.481C3.6749 39.481 2.83704 40.3189 2.83704 41.3524C2.83704 42.386 3.6749 43.2239 4.70847 43.2239Z" fill="#8A7867"/>
<path d="M4.69413 35.1655H0V34.1732C0.49596 34.1732 0.971604 33.9762 1.3223 33.6255C1.673 33.2748 1.87002 32.7992 1.87002 32.3032C1.87002 31.8072 1.673 31.3316 1.3223 30.9809C0.971604 30.6302 0.49596 30.4332 0 30.4332V29.4282H4.69413C5.45494 29.4282 6.18459 29.7304 6.72256 30.2684C7.26054 30.8064 7.56277 31.536 7.56277 32.2968C7.56277 33.0576 7.26054 33.7873 6.72256 34.3253C6.18459 34.8632 5.45494 35.1655 4.69413 35.1655V35.1655Z" fill="#C2B9AF"/>
<path d="M4.70847 34.1718C5.74203 34.1718 6.5799 33.3339 6.5799 32.3003C6.5799 31.2668 5.74203 30.4289 4.70847 30.4289C3.6749 30.4289 2.83704 31.2668 2.83704 32.3003C2.83704 33.3339 3.6749 34.1718 4.70847 34.1718Z" fill="#8A7867"/>
<path d="M4.69413 26.108H0V25.1157C0.49596 25.1157 0.971604 24.9187 1.3223 24.568C1.673 24.2173 1.87002 23.7416 1.87002 23.2457C1.87002 22.7497 1.673 22.2741 1.3223 21.9234C0.971604 21.5727 0.49596 21.3757 0 21.3757V20.3707H4.69413C5.45494 20.3707 6.18459 20.6729 6.72256 21.2109C7.26054 21.7489 7.56277 22.4785 7.56277 23.2393C7.56277 24.0002 7.26054 24.7298 6.72256 25.2678C6.18459 25.8057 5.45494 26.108 4.69413 26.108V26.108Z" fill="#C2B9AF"/>
<path d="M4.70847 25.1196C5.74203 25.1196 6.5799 24.2817 6.5799 23.2482C6.5799 22.2146 5.74203 21.3767 4.70847 21.3767C3.6749 21.3767 2.83704 22.2146 2.83704 23.2482C2.83704 24.2817 3.6749 25.1196 4.70847 25.1196Z" fill="#8A7867"/>
</g>
<path d="M45.1812 58.1597L18.3951 58.1624V33.0825L20.0973 31.3803L45.1812 31.3777V58.1597Z" fill="#017481"/>
<path d="M45.1812 58.1597L18.3951 58.1624V33.0825L20.0973 31.3803L45.1812 31.3777V58.1597Z" fill="#E5540F"/>
<path d="M45.1812 58.1597L18.3951 58.1624V33.0825L20.0973 31.3803L45.1812 31.3777V58.1597Z" fill="black"/>
<path d="M46.0001 34.8691V33.2325H44.3636V34.8691H46.0001Z" fill="#8B8F90"/>
<path d="M46.0001 36.8181V35.1815H44.3636V36.8181H46.0001Z" fill="#8B8F90"/>
<path d="M46.0001 38.767V37.1304H44.3636V38.767H46.0001Z" fill="#8B8F90"/>
<path d="M46.0001 40.7159V39.0793H44.3636V40.7159H46.0001Z" fill="#8B8F90"/>
<path d="M46.0001 42.6648V41.0282H44.3636V42.6648H46.0001Z" fill="#8B8F90"/>
<path d="M46.0001 44.6137V42.9771H44.3636V44.6137H46.0001Z" fill="#8B8F90"/>
<path d="M46.0001 46.5626V44.9261H44.3636V46.5626H46.0001Z" fill="#8B8F90"/>
<path d="M46.0001 48.5115V46.8749H44.3636V48.5115H46.0001Z" fill="#8B8F90"/>
<path d="M46.0001 50.4604V48.8239H44.3636V50.4604H46.0001Z" fill="#8B8F90"/>
<path d="M46.0001 52.4093V50.7728H44.3636V52.4093H46.0001Z" fill="#8B8F90"/>
<path d="M46.0001 54.3582V52.7217H44.3636V54.3582H46.0001Z" fill="#8B8F90"/>
<path d="M46.0001 56.3071V54.6706H44.3636V56.3071H46.0001Z" fill="#8B8F90"/>
<path d="M19.2134 34.8691V33.2326H17.5768V34.8691H19.2134Z" fill="#8B8F90"/>
<path d="M19.2134 36.818V35.1815H17.5768V36.818H19.2134Z" fill="#8B8F90"/>
<path d="M19.2134 38.767V37.1304H17.5768V38.767H19.2134Z" fill="#8B8F90"/>
<path d="M19.2134 40.7159V39.0793H17.5768V40.7159H19.2134Z" fill="#8B8F90"/>
<path d="M19.2134 42.6648V41.0282H17.5768V42.6648H19.2134Z" fill="#8B8F90"/>
<path d="M19.2134 44.6137V42.9771H17.5768V44.6137H19.2134Z" fill="#8B8F90"/>
<path d="M19.2134 46.5626V44.9261H17.5768V46.5626H19.2134Z" fill="#8B8F90"/>
<path d="M19.2134 48.5115V46.8749H17.5768V48.5115H19.2134Z" fill="#8B8F90"/>
<path d="M19.2134 50.4604V48.8239H17.5768V50.4604H19.2134Z" fill="#8B8F90"/>
<path d="M19.2134 52.4093V50.7728H17.5768V52.4093H19.2134Z" fill="#8B8F90"/>
<path d="M19.2134 54.3582V52.7217H17.5768V54.3582H19.2134Z" fill="#8B8F90"/>
<path d="M19.2134 56.3072V54.6706H17.5768V56.3072H19.2134Z" fill="#8B8F90"/>
<path d="M22.8623 30.5804H21.2257V32.2169H22.8623V30.5804Z" fill="#8B8F90"/>
<path d="M24.8111 30.5804H23.1746V32.2169H24.8111V30.5804Z" fill="#8B8F90"/>
<path d="M26.7598 30.5804H25.1233V32.2169H26.7598V30.5804Z" fill="#8B8F90"/>
<path d="M28.7089 30.5804H27.0724V32.2169H28.7089V30.5804Z" fill="#8B8F90"/>
<path d="M30.6578 30.5804H29.0212V32.2169H30.6578V30.5804Z" fill="#8B8F90"/>
<path d="M32.6068 30.5804H30.9702V32.2169H32.6068V30.5804Z" fill="#8B8F90"/>
<path d="M34.5556 30.5804H32.9191V32.2169H34.5556V30.5804Z" fill="#8B8F90"/>
<path d="M36.5046 30.5804H34.868V32.2169H36.5046V30.5804Z" fill="#8B8F90"/>
<path d="M38.4534 30.5804H36.8169V32.2169H38.4534V30.5804Z" fill="#8B8F90"/>
<path d="M40.4024 30.5804H38.7659V32.2169H40.4024V30.5804Z" fill="#8B8F90"/>
<path d="M42.3513 30.5804H40.7147V32.2169H42.3513V30.5804Z" fill="#8B8F90"/>
<path d="M22.8623 57.3443H21.2257V58.9808H22.8623V57.3443Z" fill="#8B8F90"/>
<path d="M24.8111 57.3443H23.1746V58.9808H24.8111V57.3443Z" fill="#8B8F90"/>
<path d="M26.7598 57.3443H25.1233V58.9808H26.7598V57.3443Z" fill="#8B8F90"/>
<path d="M28.7089 57.3443H27.0724V58.9808H28.7089V57.3443Z" fill="#8B8F90"/>
<path d="M30.6578 57.3443H29.0212V58.9808H30.6578V57.3443Z" fill="#8B8F90"/>
<path d="M32.6068 57.3443H30.9702V58.9808H32.6068V57.3443Z" fill="#8B8F90"/>
<path d="M34.5556 57.3443H32.9191V58.9808H34.5556V57.3443Z" fill="#8B8F90"/>
<path d="M36.5046 57.3443H34.868V58.9808H36.5046V57.3443Z" fill="#8B8F90"/>
<path d="M38.4534 57.3443H36.8169V58.9808H38.4534V57.3443Z" fill="#8B8F90"/>
<path d="M40.4024 57.3443H38.7659V58.9808H40.4024V57.3443Z" fill="#8B8F90"/>
<path d="M42.3513 57.3443H40.7147V58.9808H42.3513V57.3443Z" fill="#8B8F90"/>
</g>
<defs>
<linearGradient id="paint0_linear_9665_7624" x1="32" y1="0" x2="32" y2="74" gradientUnits="userSpaceOnUse">
<stop offset="0.857521"/>
<stop offset="1" stop-opacity="0"/>
</linearGradient>
<clipPath id="clip0_9665_7624">
<rect width="64.0895" height="164.427" fill="white"/>
</clipPath>
</defs>
</svg>
